<svg xmlns="http://www.w3.org/2000/svg" width="1200" height="720" viewBox="0 0 1200 720" role="img" aria-labelledby="title desc">
  <title id="title">OpenVibeCoding command tower flow</title>
  <desc id="desc">A three-step flow from PM request to Command Tower to evidence and replay, with governed execution and audit surfaces.</desc>
  <defs>
    <linearGradient id="bg" x1="0%" y1="0%" x2="100%" y2="100%">
      <stop offset="0%" stop-color="#f5f0e8"/>
      <stop offset="55%" stop-color="#efe5d2"/>
      <stop offset="100%" stop-color="#d9e7ee"/>
    </linearGradient>
    <linearGradient id="panel" x1="0%" y1="0%" x2="0%" y2="100%">
      <stop offset="0%" stop-color="#1f2d3a"/>
      <stop offset="100%" stop-color="#15202a"/>
    </linearGradient>
    <filter id="shadow" x="-20%" y="-20%" width="140%" height="140%">
      <feDropShadow dx="0" dy="18" stdDeviation="18" flood-color="#173041" flood-opacity="0.15"/>
    </filter>
  </defs>

  <rect width="1200" height="720" fill="url(#bg)"/>
  <circle cx="1030" cy="120" r="110" fill="#d86f45" opacity="0.18"/>
  <circle cx="180" cy="600" r="150" fill="#2d6c8a" opacity="0.12"/>

  <text x="88" y="110" fill="#15202a" font-family="Georgia, 'Times New Roman', serif" font-size="52" font-weight="700">OpenVibeCoding</text>
  <text x="88" y="152" fill="#394d5b" font-family="'Trebuchet MS', Verdana, sans-serif" font-size="24">
    Governed AI task orchestration with evidence, replay, and operator visibility
  </text>

  <g filter="url(#shadow)">
    <rect x="80" y="210" rx="28" ry="28" width="290" height="250" fill="url(#panel)"/>
    <rect x="455" y="165" rx="28" ry="28" width="290" height="310" fill="url(#panel)"/>
    <rect x="830" y="210" rx="28" ry="28" width="290" height="250" fill="url(#panel)"/>
  </g>

  <g fill="#f6f1e8" font-family="'Trebuchet MS', Verdana, sans-serif">
    <text x="112" y="252" font-size="18" opacity="0.76">Step 1</text>
    <text x="112" y="292" font-size="34" font-weight="700">PM Request</text>
    <text x="112" y="330" font-size="18">Describe the goal and acceptance target.</text>
    <text x="112" y="360" font-size="18">Start a governed run with explicit intent.</text>
    <rect x="112" y="392" rx="12" ry="12" width="152" height="34" fill="#d86f45"/>
    <text x="135" y="415" font-size="16" font-weight="700">Create task</text>
  </g>

  <g fill="#f6f1e8" font-family="'Trebuchet MS', Verdana, sans-serif">
    <text x="487" y="207" font-size="18" opacity="0.76">Step 2</text>
    <text x="487" y="247" font-size="34" font-weight="700">Command Tower</text>
    <text x="487" y="285" font-size="18">See live status, alerts, and workflow health.</text>
    <text x="487" y="315" font-size="18">Keep operator visibility over the same run.</text>

    <rect x="487" y="350" rx="18" ry="18" width="225" height="86" fill="#f6f1e8" opacity="0.95"/>
    <text x="511" y="380" fill="#15202a" font-size="15" font-weight="700">Risk lane</text>
    <text x="511" y="406" fill="#4f6070" font-size="14">Failures, alerts, and review blockers</text>
    <text x="511" y="427" fill="#4f6070" font-size="14">surface before they become guesswork</text>
  </g>

  <g fill="#f6f1e8" font-family="'Trebuchet MS', Verdana, sans-serif">
    <text x="862" y="252" font-size="18" opacity="0.76">Step 3</text>
    <text x="862" y="292" font-size="34" font-weight="700">Evidence + Replay</text>
    <text x="862" y="330" font-size="18">Inspect reports, artifacts, diffs, and reruns.</text>
    <text x="862" y="360" font-size="18">Keep the execution chain auditable.</text>
    <rect x="862" y="392" rx="12" ry="12" width="178" height="34" fill="#2d6c8a"/>
    <text x="885" y="415" font-size="16" font-weight="700">Open run details</text>
  </g>

  <g stroke="#29475a" stroke-width="6" fill="none" stroke-linecap="round">
    <path d="M372 335 C416 335, 425 320, 452 320"/>
    <path d="M747 320 C780 320, 795 335, 826 335"/>
  </g>

  <g fill="#29475a">
    <polygon points="446,307 468,320 446,333"/>
    <polygon points="820,322 842,335 820,348"/>
  </g>

  <text x="88" y="615" fill="#234056" font-family="'Trebuchet MS', Verdana, sans-serif" font-size="24" font-weight="700">
    Not just “did the agent reply?” but “can we inspect, review, and rerun the same work?”
  </text>
  <text x="88" y="652" fill="#50616d" font-family="'Trebuchet MS', Verdana, sans-serif" font-size="20">
    That is the public story the repository should lead with.
  </text>
</svg>
